<svg version="1" xmlns="http://www.w3.org/2000/svg" width="346.667" height="346.667" viewBox="0 0 260.000000 260.000000"><path d="M108.5 1.6C45.5 12.7 0 66.6 0 130c0 71.9 58.1 130 130 130 71.8 0 130-58.2 130-130 0-49.6-27.9-94.4-72.8-116.9-9-4.6-25.1-9.7-36.1-11.5-11.5-1.9-31.6-1.9-42.6 0zm29.7 88.5c21.2 4.4 35.8 25.7 31.9 46.6-3.2 17.3-16.1 30.2-33.5 33.4-16.8 3.1-35-6.1-43-21.8-15.2-30.1 11.6-65.1 44.6-58.2z"/><path d="M120.3 96.4c-10.3 3.4-17.6 9.8-22.2 19.6-2.2 4.6-2.6 6.9-2.6 14 0 7.6.4 9.3 3.3 15.2 3.8 7.7 9.2 13 17.1 16.7 8 3.7 20.1 3.7 28.2-.1 7.9-3.6 13.3-8.9 17.1-16.6 2.9-5.9 3.3-7.6 3.3-15.2 0-7.1-.4-9.4-2.6-14.1-5.8-12.4-16.9-19.9-30.2-20.5-4.3-.3-8.9.2-11.4 1zm23 5.8c6.1 2.6 14 11.2 16.1 17.4.9 2.6 1.6 7.7 1.6 11.3 0 16.7-13.5 30.1-30.1 30.1-3.6 0-8.6-.7-11.2-1.6-5.7-1.9-14.1-9.2-16.8-14.6-7.3-14.2-2.7-32.1 10.4-40.4 8.6-5.6 20.1-6.4 30-2.2z"/></svg>